<?xml version="1.0" encoding="UTF-8"?>
<svg id="Layer_1" data-name="Layer 1" xmlns="http://www.w3.org/2000/svg" viewBox="0 0 766.98 1005.03">
  <defs>
    <style>
      .cls-1 {
        fill: #acc3d2;
      }

      .cls-1, .cls-2 {
        stroke-width: 0px;
      }

      .cls-2 {
        fill: #827c79;
      }
    </style>
  </defs>
  <path class="cls-2" d="M760.87,990.16l-.2-.15c-25.1-10.5-19.48-32.9-29.29-52.96-13.69-21.61-33.94-37.43-51.75-55.47-4.7-5.65-4.25-14.07-7.31-20.32-2.66-5.39-8.25-9.11-11.4-14.26-6.5-20.08-22.28-34.72-32.11-53.19-11.4-20.22-29.59-25.8-23.51-52.4,0-3.68-.29-7.66-1.65-11.14-2.67-7.83-11.19-6.38-18.86-9.14-15.27-9.49-16.62-7.59-33.26-7.89-25.39-7.72-21.63-41.98-18.23-62.64.64-16.32,11.78-30.83,8.97-47.07-10.64-21.13-1.68-43.92,5.45-64.69,3.42-9.2,10.66-15.63,16.21-23.28,4.55-7.02,9.26-13.96,14.7-20.21-3.08-3.86-7.36-5.74-12.15-6.15-4.96-.42-9.99-.18-14.99-.05-2.59.07-4.99-.37-7.12-1.83-2.62-1.81-4.61-3.75-1.96-7.2,2.69-3.5.97-5.06-2.78-6.1-8.51-2.35-17.15-1.19-25.72-1.17-8.18.01-15.2-2.8-21.64-7.31-3.94-2.75-8.24-2.92-12.37-2.03-2.88.61-4.75.41-6.52-1.75-.29-.34-.67-.75-1.06-.82-7.05-1.24-9.2-6.38-10.2-12.56-.71-4.42-3.61-6-7.84-5.66-.23.01-.45,0-.68,0-7.69-.12-12.19,3.6-13.49,11.14-1.88,10.98-10.61,18.54-21.91,18.84-3.98.11-7.85,1.15-11.97.01-4.96-1.36-7.62-4.05-8.4-9.11-.9-5.85-6.48-10.55-12.67-10.99-1.16,1.9-1.92,3.95-2.15,5.89.33,1.95,2.05,2.07,2.88,3.11,2.95,3.68,2.92,6.68-.16,9.56-3.67,3.42-9.18,4.25-11.49.89-2.96-4.3-7.58-5.82-11.89-9,1.21-7.39-1.09-14.3-4.99-20.93-3-5.09-6.6-8.48-13.02-7.68-2.69.34-5.44.08-8.17.07-7.59-.03-9.03-1.23-11.03-8.93-.33-1.28-1.25-2.45.07-4.55,5.05,1.1,10.61,1.72,15.69,3.63,4.5,1.69,8.7,2.03,13.23,1.02,5.29-1.19,8.88.56,10.94,5.29,1.7,3.91,3.33,7.85,5.24,11.7,3.08,6.23,2.78,12.93.37,19.98,3.71-2.62,3.83-2.62,3.94-5.63.14-3.86,0-7.73.05-11.59.1-6.87,1.58-8.26,8.59-8.18,10.94.14,18.16,5.74,22.62,17.71,1.25,3.37,2.25,6.84,3.33,10.16,10.25,1.7,18.95-4.55,19.99-14.26.52-4.77,2.69-9.03,4.15-13.49,1.95-5.9,11.17-7.62,17.75-6.64,1.98.3,3.9.91,5.96,1.1,5.59.5,8.71,3.19,10.23,8.41,3.08,10.65,4.84,11.34,16.06,9.74,5.48-.79,11.34-.52,14.6,5.85,1.76,3.44,4.92,4.65,9.05,4.72,9.48.18,18.95-.85,28.47.86,9.29,1.68,16.35,4.91,17.69,15.33.08.65.42,1.27.7,1.88.08.19.33.31.85.79,13.17-6.16,25.76-.74,38.52,2.65,41.21-30.71,30.84-8.21,27-47.1.14-6.29,5.59-10.53,8.64-14.97,1.96-3.11-.15-7.73-3.78-8.29-3.12-.64-7.01,2.3-9.83,2.6-8.09-.04-4.81-25.1-13.36-33.53-5.54-11.44-22.14-12.9-24.13-26.51-4.3-39.97,20.41-76.69,24.84-115.83,10.81-21.58,8.39-20.51,1.5-42.71,1.1-17.06-3.91-32.71-12.87-47.11-2.99-8.85-2.73-19.5-10.47-25.98-19.55-14.63-20.85-26.82-30.75-46.47-15.67-21.65-14.02-28.28-41.17-39.91-8.66-6.93-15.74-17.11-27.72-18.16-13.02-2.1-19.35,11.78-28.76,18.12-6.15,8.34-26.21,7.89-25.98,17.17,1.77,7.25,11.58,4.06,16.94,3.95,12.49,4.77-10.38,15.33-14.36,19.06-9.14,7.02-18.64,13.87-26.62,22.35-4.84,5.66-24.61,14.02-21.49-.04,5.78-10.06,11.21-22.47,22.43-26.88,8.51-2.66,9.11-11.81,9.15-19.35.31-5.36,2.17-11.75.63-16.28-3.11-7.27-12.99-6.01-18.61-10.58-11.93-7.23-17.49-9.69-20.56-23.93-2.54-4.04-7.38.01-9.97,2.3-10.64,5.5-17.55,30.57-31.59,17.84-22.2-18.24-48.3,4.28-72.14,6.75-13.16-.05-25.39-8.24-38.62-6.61-8.99,2.85-21.05,2.56-28.09,8.64-6.61,5.56-.23,20.43-10.76,21.71-10.09.34-20.78-5.02-30.57-2.17-9.42,4.36-33.86,16.36-35.21,26.32-.42,12.14-4.02,23.08-9.2,33.97-2.81,14.32-5,33.65,9.11,42.86,11.55,7.35,11.62,19.69,11.99,31.8,5.73,18.75,9.19,40.81-2.33,58.09-4.55,8.59-3.7,18.64-8.86,27.11-7.64,17.85-25.01,17.02-31.05,36.73-18.12,30.98-54.02-27.42-78.76,9.11-12.84,39.11-11.92,30.37,17.93,51.51,17.09,14.6,4.99,39.57,38.47,43.03,46.51,11.36,8.48,50.86,67.59,38.36,16.57,1.12,27.54,16.89,41.75,24.16,11.29,7.68,9,22.38,15.71,33.07,3.07,7.38-.82,14.4.07,22.42,1.51,7.88,3.45,17.41,7.62,23.89,7.35,8.43,21.56,6.94,28.89,16.02,23.44,23.07,3.31,36.54,48.98,47.57,14.6,4.68,8.79,15.14,11.32,25.89,2.92,6.56,10.57,9.79,14.48,15.75,5.03,7.79,8.52,15.87,14.93,22.51,7.76,12.65,12.27,21.9,27.64,26.86,11.03,5.07,1.96,15.8,4.19,25.03.8,7.24,8.07,11.25,11.9,15.94,4.31,6.3,3.41,15.16,10.25,19.93,7.61,5.35,13.55,13.62,20.36,19.38,8.26,6.41,20.78-.59,27.72,8.66,15.82,21.91,18.23,4.35,44.17,16.49,17.39.75,17.06-23.62,27.56-33.08,9.72-9.69,21.24-26.9,35.78-15.41,8.44,5.03,9.65,16.28,17.11,22.4,7.64,7.83,17.66,15.41,21.03,25.98.25,10.21,7.68,17.24,12.04,25.47,1.09,12.46,3.53,25.5,4.58,37.73.64,16.66-4.24,49.25,14.92,55.69,6.54,1.66,14.32-2.45,21.71-3.31,8.32-1.46,17.3-.38,25.27-3.3,10.84-4.62,21.42-19.39,34.66-16.76,3.7,4.4-1.47,15.95-.12,22.2.76,10.34-6.87,21.46.07,30.6,6.3,6.93,17.6,6.8,23.18,14.94,4.35,5.69,9.65,10.76,17.02,11.86,15.44,2.29,28.89,10.36,42.39,17.21,10.96,1.84,9.72-10.46,1.84-14.63l.04-.05Z"/>
  <path class="cls-1" d="M554.72,479.43c-.52-.48-.76-.6-.85-.79-.27-.61-.61-1.24-.7-1.88-1.34-10.42-8.4-13.65-17.69-15.33-9.52-1.72-18.99-.7-28.47-.86-4.13-.08-7.29-1.28-9.05-4.72-3.26-6.37-9.12-6.64-14.6-5.85-11.21,1.62-12.97.93-16.06-9.74-1.51-5.22-4.64-7.91-10.23-8.41-2.06-.19-3.98-.8-5.96-1.1-6.59-.98-15.8.74-17.75,6.64-1.47,4.46-3.64,8.71-4.15,13.49-1.04,9.71-9.74,15.97-19.99,14.26-1.08-3.31-2.07-6.78-3.33-10.16-4.47-11.97-11.7-17.59-22.62-17.71-6.99-.08-8.49,1.31-8.59,8.18-.05,3.86.08,7.73-.05,11.59-.1,3.01-.23,3.01-3.94,5.63,2.4-7.05,2.71-13.73-.37-19.98-1.9-3.85-3.53-7.77-5.24-11.7-2.06-4.73-5.65-6.48-10.94-5.29-4.53,1.01-8.73.67-13.23-1.02-5.09-1.91-10.65-2.52-15.69-3.63-1.32,2.09-.41,3.26-.07,4.55,1.99,7.7,3.44,8.9,11.03,8.93,2.73,0,5.5.27,8.17-.07,6.44-.82,10.04,2.59,13.02,7.68,3.9,6.61,6.2,13.53,4.99,20.93,4.31,3.19,8.93,4.7,11.89,9,2.32,3.35,7.83,2.54,11.49-.89,3.08-2.88,3.12-5.88.16-9.56-.83-1.04-2.55-1.17-2.88-3.11.22-1.94,1-4,2.15-5.89,6.19.44,11.78,5.15,12.67,10.99.78,5.06,3.44,7.74,8.4,9.11,4.13,1.13,8,.1,11.97-.01,11.3-.3,20.03-7.87,21.91-18.84,1.3-7.54,5.8-11.26,13.49-11.14.23,0,.45.01.68,0,4.23-.35,7.12,1.24,7.84,5.66,1,6.18,3.16,11.32,10.2,12.56.4.07.79.48,1.06.82,1.77,2.15,3.63,2.36,6.52,1.75,4.13-.87,8.43-.72,12.37,2.03,6.44,4.5,13.46,7.32,21.64,7.31,8.56-.01,17.21-1.17,25.72,1.17,3.75,1.04,5.47,2.59,2.78,6.1-2.65,3.45-.65,5.4,1.96,7.2,2.11,1.46,4.53,1.9,7.12,1.83,4.99-.12,10.02-.37,14.99.05,4.79.41,9.07,2.29,12.15,6.15,4.04-4.62,8.48-8.88,13.59-12.49.34-.26.67-.5,1.01-.75-12.76-3.38-25.35-8.82-38.52-2.65l-.03-.04Z"/>
</svg>